<svg width="14" height="10" viewBox="0 0 14 10" fill="none" xmlns="http://www.w3.org/2000/svg">
<path d="M11.6783 0.893771C10.8179 0.516244 9.89518 0.238099 8.93044 0.0787933C8.91287 0.0757187 8.89532 0.0834022 8.88627 0.0987694C8.76761 0.30059 8.63616 0.563881 8.54411 0.770826C7.50648 0.622281 6.47417 0.622281 5.45781 0.770826C5.36574 0.559281 5.22952 0.30059 5.11032 0.0987694C5.10127 0.0839149 5.08372 0.0762314 5.06615 0.0787933C4.10195 0.23759 3.17925 0.515735 2.31828 0.893771C2.31082 0.896844 2.30443 0.901971 2.30019 0.908626C0.550033 3.40888 0.0705905 5.84768 0.305789 8.25624C0.306853 8.26803 0.313771 8.2793 0.323349 8.28646C1.47806 9.09733 2.59659 9.58961 3.69434 9.9159C3.71191 9.92103 3.73053 9.91488 3.74171 9.90104C4.00138 9.56195 4.23286 9.20441 4.43133 8.82841C4.44304 8.80639 4.43186 8.78026 4.40792 8.77155C4.04076 8.63837 3.69115 8.47599 3.35485 8.29159C3.32825 8.27674 3.32612 8.24035 3.35059 8.22294C3.42136 8.17223 3.49215 8.11946 3.55972 8.06619C3.57195 8.05646 3.58899 8.05441 3.60336 8.06055C5.81272 9.02512 8.20462 9.02512 10.3879 8.06055C10.4023 8.0539 10.4193 8.05595 10.4321 8.06568C10.4997 8.11895 10.5704 8.17223 10.6417 8.22294C10.6662 8.24035 10.6646 8.27674 10.638 8.29159C10.3017 8.47957 9.95211 8.63837 9.58441 8.77104C9.56047 8.77975 9.54983 8.80639 9.56154 8.82841C9.76427 9.20388 9.99575 9.56143 10.2506 9.90054C10.2613 9.91488 10.2804 9.92103 10.298 9.9159C11.4011 9.58961 12.5196 9.09733 13.6743 8.28646C13.6844 8.2793 13.6908 8.26854 13.6919 8.25675C13.9734 5.47219 13.2204 3.05339 11.6959 0.909135C11.6921 0.901971 11.6858 0.896844 11.6783 0.893771ZM4.76126 6.78968C4.09609 6.78968 3.54801 6.20574 3.54801 5.48859C3.54801 4.77144 4.08546 4.1875 4.76126 4.1875C5.44237 4.1875 5.98514 4.77657 5.97449 5.48859C5.97449 6.20574 5.43704 6.78968 4.76126 6.78968ZM9.24705 6.78968C8.5819 6.78968 8.03381 6.20574 8.03381 5.48859C8.03381 4.77144 8.57125 4.1875 9.24705 4.1875C9.92817 4.1875 10.4709 4.77657 10.4603 5.48859C10.4603 6.20574 9.92817 6.78968 9.24705 6.78968Z" fill="#F5FFFC"/>
</svg>
