<svg width="42" height="42" viewBox="0 0 42 42" fill="none" xmlns="http://www.w3.org/2000/svg">
<path fill-rule="evenodd" clip-rule="evenodd" d="M21 3.23792L20.2258 7.93849C19.187 14.2448 14.2443 19.1875 7.93801 20.2262L3.23743 21.0005L7.93801 21.7748C14.2443 22.8135 19.187 27.7562 20.2258 34.0625L21 38.7631L21.7743 34.0625C22.813 27.7562 27.7557 22.8135 34.062 21.7748L38.7626 21.0005L34.062 20.2262C27.7557 19.1875 22.813 14.2448 21.7743 7.9385L21 3.23792ZM19.5082 7.82029L20.6412 0.941406L21.3588 0.941406L22.4919 7.8203C23.48 13.819 28.1816 18.5206 34.1802 19.5086L41.0591 20.6417V21.3593L34.1802 22.4924C28.1816 23.4804 23.48 28.182 22.4919 34.1807L21.3588 41.0596H20.6412L19.5082 34.1807C18.5201 28.182 13.8185 23.4804 7.81981 22.4924L0.940918 21.3593L0.940918 20.6417L7.81981 19.5086C13.8185 18.5206 18.5201 13.819 19.5082 7.82029Z" fill="#3E4949"/>
</svg>
