<svg width="12" height="12" viewBox="0 0 12 12" fill="none" xmlns="http://www.w3.org/2000/svg">
<path d="M10.5285 3.5896C10.5331 3.6952 10.5331 3.796 10.5331 3.9016C10.5378 7.10321 8.18553 10.7992 3.8839 10.7992C2.61518 10.7992 1.36961 10.42 0.299988 9.70962C0.485203 9.73362 0.670418 9.74322 0.855634 9.74322C1.90673 9.74322 2.93004 9.37842 3.75888 8.70161C2.75872 8.68241 1.87895 8.00561 1.57334 7.01681C1.92525 7.08881 2.28642 7.07441 2.62907 6.97361C1.54093 6.75281 0.758396 5.7592 0.753765 4.6024C0.753765 4.5928 0.753765 4.5832 0.753765 4.5736C1.07789 4.7608 1.44369 4.8664 1.81412 4.876C0.790808 4.1656 0.471312 2.74959 1.09178 1.64079C2.28179 3.15759 4.03208 4.0744 5.91201 4.1752C5.72216 3.3352 5.98147 2.45199 6.58805 1.85679C7.52801 0.939987 9.00974 0.987987 9.89877 1.96239C10.422 1.85679 10.9267 1.65519 11.3851 1.37199C11.2092 1.93359 10.8434 2.40879 10.3572 2.71119C10.8202 2.65359 11.274 2.52399 11.7 2.33199C11.3851 2.82159 10.9869 3.24399 10.5285 3.5896Z" fill="#F5FFFC"/>
</svg>
